<?xml version="1.0" standalone="no"?>
<!DOCTYPE svg PUBLIC "-//W3C//DTD SVG 20010904//EN"
 "http://www.w3.org/TR/2001/REC-SVG-20010904/DTD/svg10.dtd">
<svg version="1.0" xmlns="http://www.w3.org/2000/svg"
 width="1280.000000pt" height="640.000000pt" viewBox="0 0 1280.000000 640.000000"
 preserveAspectRatio="xMidYMid meet">
<metadata>
Created by potrace 1.15, written by Peter Selinger 2001-2017
</metadata>
<g transform="translate(0.000000,640.000000) scale(0.100000,-0.100000)"
fill="#000000" stroke="none">
<path d="M8287 5800 c-26 -5 -86 -28 -134 -52 -77 -38 -98 -56 -202 -166 -121
-128 -221 -254 -221 -277 0 -7 -12 -37 -27 -66 -27 -52 -28 -57 -28 -224 l0
-170 53 -115 c67 -143 77 -195 63 -330 -12 -128 -44 -197 -133 -295 -111 -121
-184 -156 -398 -189 -83 -13 -112 -23 -230 -83 -150 -76 -196 -109 -355 -260
-60 -58 -127 -120 -147 -138 -39 -35 -55 -84 -44 -129 10 -42 115 -76 235 -76
100 0 314 -41 373 -71 21 -11 44 -19 52 -19 7 0 76 -32 152 -71 143 -74 239
-138 249 -167 3 -10 40 -53 83 -98 42 -44 109 -126 149 -181 88 -124 213 -330
213 -351 0 -9 24 -66 54 -127 30 -60 82 -189 116 -285 99 -280 174 -423 265
-509 52 -48 74 -62 118 -71 93 -21 221 21 284 94 29 33 63 138 63 195 0 25 8
26 46 6 77 -40 204 10 252 100 12 22 18 68 22 178 l5 148 65 -47 c132 -94 248
-132 310 -100 17 8 38 12 46 9 8 -3 47 -46 86 -97 123 -156 231 -250 335 -291
21 -8 71 -21 111 -30 94 -19 102 -24 198 -116 154 -147 218 -177 410 -189 154
-10 179 -17 233 -59 67 -54 202 -130 267 -151 93 -31 203 -26 259 13 22 15 48
27 58 27 11 0 56 -24 100 -54 104 -68 141 -80 232 -74 55 4 84 11 118 31 25
15 55 27 66 27 12 0 54 -29 94 -65 196 -175 299 -214 497 -185 142 20 133 113
-31 308 -168 200 -257 350 -327 552 -16 47 -43 108 -60 136 -16 28 -34 66 -40
85 -6 19 -17 57 -25 84 -8 28 -38 102 -66 165 -28 63 -51 129 -51 146 0 41
-36 146 -66 189 -13 20 -24 40 -24 46 0 27 -49 150 -117 293 -41 87 -80 177
-87 200 -7 23 -28 65 -48 92 -19 28 -47 86 -62 130 -82 232 -227 537 -335 704
-45 69 -89 144 -97 168 -9 23 -22 42 -29 42 -19 0 -103 111 -168 220 -132 225
-453 567 -717 764 -111 82 -376 303 -470 390 -76 71 -136 105 -320 179 -327
133 -674 226 -920 246 -211 17 -303 20 -353 11z m538 -156 c230 -45 332 -71
371 -94 17 -10 51 -21 75 -25 121 -18 343 -118 494 -223 247 -171 504 -374
659 -522 132 -127 592 -654 623 -715 8 -16 46 -71 83 -121 37 -49 86 -123 109
-164 23 -41 63 -103 88 -140 53 -74 153 -262 153 -286 0 -13 219 -512 370
-844 26 -58 77 -184 113 -280 36 -96 111 -290 167 -430 56 -140 113 -286 127
-325 43 -119 256 -487 315 -545 62 -61 118 -134 118 -152 0 -10 -10 -20 -24
-24 -29 -7 -126 10 -164 30 -36 19 -240 231 -310 322 -152 199 -219 298 -259
380 -46 98 -54 147 -26 163 23 12 18 21 -103 186 -132 180 -181 255 -237 365
-53 103 -51 115 16 90 56 -21 95 -28 108 -19 19 12 -13 44 -82 80 -31 17 -72
44 -90 60 l-34 29 38 -6 c71 -12 36 36 -117 157 -68 54 -187 192 -245 283 -21
34 -31 63 -31 88 0 22 -7 53 -16 69 -15 30 -15 31 6 24 24 -8 74 20 65 36 -4
5 -32 22 -64 38 -57 29 -89 56 -78 67 3 3 29 11 59 18 35 7 53 17 53 26 0 9
-45 37 -111 70 -106 52 -120 63 -261 200 -168 163 -156 146 -367 489 -85 138
-181 285 -213 328 -107 144 -391 422 -598 588 -133 106 -257 149 -485 165 -80
5 -170 17 -199 25 -45 11 -60 12 -80 2 -22 -11 -26 -19 -25 -52 2 -36 9 -46
73 -105 58 -53 71 -71 71 -95 0 -50 -20 -104 -49 -138 -26 -29 -35 -32 -102
-35 -82 -5 -99 -13 -99 -48 0 -18 14 -33 54 -59 56 -38 128 -118 154 -172 14
-29 14 -36 -2 -78 -10 -25 -32 -67 -50 -93 -31 -44 -36 -47 -83 -50 -33 -2
-69 4 -104 18 -67 25 -105 26 -118 2 -15 -28 7 -60 72 -110 32 -24 66 -61 77
-83 22 -43 27 -136 9 -172 -20 -40 -92 -107 -127 -118 -29 -10 -37 -8 -70 15
-20 14 -62 50 -92 81 -30 30 -58 55 -63 55 -15 0 0 -68 34 -155 57 -148 50
-273 -17 -301 -71 -30 -117 -14 -174 62 -40 53 -82 76 -101 57 -6 -6 -5 -29 1
-62 14 -76 12 -156 -4 -196 -16 -38 -52 -60 -125 -76 -64 -13 -76 -7 -169 93
-41 43 -78 78 -82 78 -5 0 -11 -44 -14 -97 -15 -246 -49 -270 -224 -158 -143
92 -297 171 -367 190 -33 8 -133 24 -222 35 -168 21 -193 26 -193 41 0 5 50
61 112 125 123 127 257 224 343 249 28 9 114 19 191 24 76 5 155 15 174 22
111 39 262 203 339 370 56 120 75 204 75 329 0 119 -17 174 -78 263 -46 66
-69 170 -64 282 3 64 11 99 42 175 48 118 99 195 190 285 67 66 79 73 193 118
200 77 294 81 598 21z m394 -700 c147 -36 362 -159 529 -304 136 -118 309
-343 396 -518 93 -185 169 -411 183 -543 3 -31 2 -104 -2 -163 l-7 -106 -36 0
c-80 0 -111 39 -192 242 -65 164 -148 315 -245 446 -32 42 -146 165 -254 273
-178 178 -203 200 -271 232 -114 53 -230 82 -230 58 0 -21 124 -126 245 -208
102 -69 344 -342 468 -530 134 -201 247 -574 223 -734 -8 -54 -54 -115 -102
-135 -62 -26 -75 -9 -130 177 -45 153 -75 230 -151 384 -33 67 -64 134 -70
151 -35 100 -402 476 -518 530 -44 21 -59 60 -31 83 20 17 93 -27 236 -142
166 -134 363 -354 432 -486 24 -45 52 -71 64 -59 3 4 -8 33 -26 65 -116 205
-288 406 -505 589 -177 149 -185 158 -195 221 -10 65 -1 143 25 213 9 25 19
88 22 140 3 52 10 105 14 118 10 27 37 28 128 6z m-86 -895 c178 -167 298
-341 401 -580 113 -260 163 -462 157 -627 -2 -49 -50 -92 -102 -92 -32 0 -48
8 -84 41 -48 44 -71 87 -228 425 -96 206 -150 295 -268 446 -118 150 -159 217
-159 260 0 66 11 58 214 -167 168 -186 252 -312 316 -475 24 -61 67 -130 80
-130 19 0 10 51 -24 135 -19 47 -38 99 -41 117 -4 18 -18 49 -32 69 -13 20
-21 43 -18 52 9 21 -37 114 -90 185 -77 102 -312 316 -360 328 -28 7 -30 13
-12 36 15 21 119 89 129 86 4 -2 58 -51 121 -109z m1598 -684 c77 -82 99 -110
99 -132 0 -16 10 -48 23 -72 12 -23 55 -109 96 -189 80 -159 110 -205 268
-410 57 -74 111 -149 120 -166 8 -17 24 -41 35 -53 11 -12 24 -43 29 -69 12
-62 106 -254 176 -358 67 -99 96 -155 129 -249 40 -110 148 -327 225 -450 38
-61 69 -114 69 -118 0 -14 -132 -82 -160 -82 -56 0 -212 132 -299 253 -52 74
-70 105 -319 550 -118 212 -254 464 -302 560 -223 448 -244 485 -419 728 -85
120 -96 152 -71 216 20 53 50 31 203 -143 196 -224 472 -666 619 -990 170
-376 282 -611 303 -638 22 -27 45 -25 45 4 0 21 -316 715 -426 934 -91 184
-167 315 -227 399 -106 145 -229 305 -311 405 -182 220 -186 227 -186 325 l0
72 91 -112 c50 -61 136 -158 190 -215z m-1875 277 c55 -40 153 -149 192 -215
80 -133 124 -267 163 -499 36 -211 21 -294 -60 -342 -69 -40 -118 4 -162 148
-101 332 -175 478 -329 651 -89 100 -112 137 -108 176 2 18 8 34 14 36 26 8
291 -294 321 -366 8 -19 34 -68 58 -110 24 -42 54 -107 66 -146 12 -38 27 -76
35 -84 32 -34 31 109 -2 205 -46 137 -131 272 -264 419 -49 55 -90 103 -90
108 0 4 10 7 23 7 12 0 36 9 52 20 39 26 45 25 91 -8z m-273 -284 c66 -72 156
-204 191 -280 43 -94 73 -215 88 -353 31 -296 -75 -511 -176 -358 -40 60 -70
147 -110 314 -62 257 -112 401 -167 483 -27 39 -49 76 -49 83 0 15 37 36 49
29 5 -3 11 -22 14 -41 4 -22 21 -53 43 -77 48 -53 104 -175 160 -345 25 -74
52 -149 61 -166 14 -28 16 -29 25 -12 37 65 -63 413 -173 600 -45 78 -58 127
-39 150 20 24 41 18 83 -27z m-308 -105 c6 -18 20 -42 32 -55 30 -33 51 -79
90 -193 67 -196 75 -241 80 -475 6 -241 -2 -296 -41 -306 -74 -18 -159 101
-232 323 -40 124 -103 255 -176 365 -54 83 -56 108 -11 108 15 0 41 7 57 15
25 13 32 13 43 2 28 -28 145 -304 184 -435 47 -155 56 -175 71 -166 16 10 2
143 -27 259 -14 55 -53 168 -86 250 -54 133 -60 155 -54 195 4 25 9 63 11 85
3 22 7 46 10 53 7 24 39 8 49 -25z m2008 -123 c56 -49 137 -151 165 -206 11
-22 28 -47 37 -54 34 -28 93 -134 276 -490 432 -846 567 -1094 638 -1176 16
-18 39 -58 51 -90 20 -55 20 -59 4 -71 -24 -17 -74 -8 -149 27 -45 21 -91 58
-186 151 -145 144 -183 191 -306 389 -158 254 -250 423 -460 844 -113 226
-214 424 -226 440 -18 25 -19 32 -8 60 7 17 24 64 37 105 43 129 54 135 127
71z m-2428 -92 c34 -13 85 -56 85 -73 0 -6 29 -70 65 -141 35 -71 70 -154 76
-184 6 -30 23 -97 36 -148 15 -58 22 -104 18 -120 l-7 -27 -31 37 c-18 20 -50
79 -71 130 -56 132 -126 271 -190 376 -74 122 -88 151 -80 163 6 11 49 5 99
-13z m-91 -110 c18 -29 55 -93 80 -143 l48 -90 -37 40 c-57 62 -145 198 -145
223 0 36 18 26 54 -30z m2062 -107 c21 -16 53 -32 71 -35 40 -9 48 -20 72 -87
20 -58 190 -444 276 -624 88 -186 223 -394 246 -379 15 9 4 35 -86 214 -45 91
-128 269 -185 395 -56 127 -124 279 -152 338 -39 84 -48 111 -39 120 10 9 18
5 36 -17 32 -40 166 -303 258 -506 101 -222 266 -547 309 -607 19 -26 39 -62
45 -79 6 -16 47 -90 92 -163 45 -73 78 -137 75 -143 -12 -20 -125 0 -199 35
-129 62 -264 198 -352 355 -21 37 -101 209 -179 382 -222 495 -289 641 -323
704 -32 60 -42 126 -18 126 7 0 31 -13 53 -29z m-261 -201 c18 0 40 -37 76
-127 101 -254 269 -532 269 -445 0 19 -193 437 -235 508 -31 53 -31 58 2 73
23 11 29 10 39 -4 17 -24 109 -246 160 -390 85 -238 103 -284 148 -373 25 -50
50 -111 57 -136 6 -26 21 -53 32 -61 26 -18 57 -65 57 -87 0 -14 -8 -18 -34
-18 -19 0 -45 4 -58 9 -38 14 -247 252 -309 350 -31 50 -78 138 -104 198 -59
134 -225 543 -225 555 0 4 25 -5 56 -22 31 -16 62 -30 69 -30z m-169 -126 c7
-32 38 -129 70 -214 31 -85 61 -173 65 -195 30 -156 -192 -78 -310 110 -40 63
-91 174 -91 197 0 8 23 19 53 27 86 22 88 21 109 -34 56 -143 97 -215 124
-215 24 0 16 34 -36 164 -56 137 -64 191 -35 213 29 21 38 11 51 -53z m-367
-118 c44 -94 88 -403 76 -530 -6 -54 -12 -74 -31 -91 -45 -42 -158 -61 -168
-27 -3 9 -24 116 -47 236 -39 212 -40 220 -22 233 26 20 64 27 81 16 8 -5 27
-44 41 -88 14 -43 32 -81 40 -83 19 -6 8 104 -19 189 -44 137 -4 257 49 145z
m-402 -168 c55 -60 124 -247 143 -388 24 -179 -31 -369 -120 -415 -29 -15 -34
-15 -56 -1 -44 30 -55 59 -69 199 -13 124 -27 215 -55 356 -15 79 -12 115 11
145 11 14 24 26 29 26 4 0 22 -75 39 -167 18 -93 38 -201 46 -242 14 -71 28
-102 41 -89 7 8 7 138 -2 207 -3 31 -17 103 -31 161 -33 141 -34 230 -4 230 4
0 17 -10 28 -22z m-355 -41 c40 -108 115 -447 99 -447 -12 0 -48 80 -99 220
-27 74 -56 149 -65 167 -22 42 -21 55 4 87 28 35 40 29 61 -27z"/>
<path d="M8634 5378 c-12 -13 -28 -45 -37 -73 -8 -27 -28 -87 -45 -132 -19
-51 -27 -85 -21 -88 16 -11 87 75 124 149 39 77 43 113 17 146 l-17 21 -21
-23z"/>
<path d="M8890 5321 c-28 -23 -48 -29 -98 -33 -73 -5 -98 -21 -67 -44 17 -13
45 -14 175 -9 161 7 275 26 323 53 29 17 35 31 15 33 -7 1 -60 1 -118 -1 -79
-1 -116 2 -144 14 -48 20 -44 21 -86 -13z"/>
<path d="M8290 5163 c0 -4 17 -27 38 -52 46 -55 72 -102 72 -132 0 -12 -14
-44 -31 -71 -37 -58 -30 -77 23 -62 60 17 100 142 67 207 -17 32 -70 87 -101
103 -28 15 -68 19 -68 7z"/>
<path d="M8277 4803 c-13 -12 -7 -19 57 -61 67 -44 126 -108 126 -137 0 -9
-14 -36 -31 -61 -32 -46 -32 -65 0 -57 27 7 80 61 87 88 10 39 -27 136 -66
175 -45 45 -149 77 -173 53z"/>
<path d="M8337 4493 c-14 -14 -6 -44 25 -88 26 -37 33 -57 36 -109 4 -59 2
-67 -21 -90 -18 -18 -37 -26 -60 -26 -38 0 -57 -15 -57 -46 0 -56 59 -56 144
1 96 64 109 134 47 260 -39 80 -90 123 -114 98z"/>
<path d="M8240 4005 c-62 -51 -100 -65 -183 -65 l-57 0 6 -86 c8 -100 6 -104
-73 -104 -46 0 -58 4 -92 35 -44 40 -66 44 -81 14 -21 -38 30 -88 128 -126
l43 -16 42 29 c75 53 113 130 82 164 -18 20 -17 20 26 20 61 0 139 40 189 97
36 41 52 83 32 83 -4 0 -32 -20 -62 -45z"/>
<path d="M9122 4839 c2 -16 31 -36 113 -78 61 -31 124 -65 140 -77 17 -11 43
-26 58 -34 31 -15 196 -162 317 -281 45 -44 93 -105 119 -149 82 -139 151
-214 151 -161 0 35 -162 266 -272 386 -67 74 -244 226 -341 293 -154 107 -293
156 -285 101z"/>
<path d="M10190 3094 c0 -8 60 -106 134 -217 74 -111 160 -249 191 -307 32
-58 65 -116 75 -130 10 -14 78 -149 153 -300 90 -185 154 -301 194 -355 59
-80 105 -121 123 -110 15 9 -289 600 -511 992 -125 219 -160 269 -261 371 -72
71 -98 87 -98 56z"/>
<path d="M8980 1950 c-8 -14 -8 -26 0 -40 17 -32 30 -23 30 20 0 43 -13 52
-30 20z"/>
<path d="M4175 5750 c-311 -23 -798 -170 -1119 -338 -49 -26 -101 -60 -115
-75 -14 -16 -46 -42 -71 -60 -25 -17 -83 -67 -130 -113 -47 -45 -104 -93 -128
-108 -23 -15 -59 -42 -80 -60 -20 -18 -71 -57 -113 -88 -194 -143 -525 -502
-689 -748 -34 -52 -105 -151 -156 -220 -142 -192 -242 -377 -405 -752 -56
-128 -114 -258 -130 -288 -16 -30 -47 -98 -69 -150 -22 -52 -58 -129 -79 -170
-21 -41 -60 -130 -85 -197 -26 -67 -55 -132 -65 -145 -11 -13 -24 -56 -30 -97
-6 -41 -30 -122 -53 -180 -22 -58 -54 -146 -70 -196 -16 -49 -41 -112 -55
-139 -14 -27 -52 -115 -84 -195 -88 -216 -134 -289 -323 -522 -80 -98 -126
-177 -126 -215 0 -12 11 -36 25 -53 36 -42 107 -56 223 -42 121 15 183 48 312
165 68 62 113 96 128 96 12 0 46 -12 75 -26 124 -63 257 -37 399 77 l27 22 71
-32 c66 -31 76 -33 158 -29 110 5 174 30 294 112 152 103 134 97 283 107 164
11 173 13 255 55 130 68 240 167 240 217 0 27 38 39 147 48 74 6 118 14 151
30 49 24 143 114 296 282 81 89 91 98 115 91 86 -24 188 4 303 82 43 30 81 54
83 54 3 0 5 -46 5 -102 0 -141 15 -237 41 -264 46 -49 125 -70 234 -61 29 2
31 -1 58 -77 15 -44 38 -94 51 -111 33 -43 144 -97 210 -103 101 -8 205 63
283 192 51 83 155 328 199 466 45 144 197 447 312 625 104 160 299 371 412
447 83 56 223 125 320 157 107 37 299 73 400 75 70 2 107 8 141 23 54 24 61
33 61 79 0 36 -45 124 -64 124 -6 0 -72 60 -147 133 -124 121 -148 140 -271
209 -178 100 -224 118 -309 118 -171 0 -291 72 -435 259 -79 103 -81 109 -81
267 0 133 2 143 28 193 15 29 27 59 27 65 0 7 17 35 38 62 l37 49 -1 135 c-1
238 -49 371 -193 536 -134 154 -250 250 -345 287 -61 23 -236 30 -421 17z
m305 -137 c188 -62 311 -146 393 -271 88 -132 120 -243 121 -407 1 -120 0
-124 -78 -250 -51 -83 -59 -122 -53 -250 11 -232 87 -396 267 -573 102 -101
149 -122 267 -122 239 0 381 -66 581 -268 75 -77 112 -122 112 -137 0 -21 -5
-22 -107 -28 -249 -14 -443 -78 -639 -210 -146 -99 -176 -107 -218 -57 -31 37
-39 78 -40 194 -1 92 -11 114 -38 80 -37 -48 -117 -121 -150 -137 -72 -34
-168 -13 -199 45 -8 14 -12 61 -11 129 2 105 -7 159 -27 159 -6 0 -34 -28 -62
-62 -72 -87 -100 -104 -148 -90 -20 7 -48 23 -62 38 -21 23 -24 34 -23 98 1
79 23 165 60 238 27 53 31 88 10 88 -8 0 -38 -22 -68 -48 -77 -70 -98 -82
-141 -82 -45 0 -82 20 -116 62 -76 95 -56 217 49 292 48 35 90 87 90 114 0 16
-50 15 -125 -3 -99 -24 -129 -20 -176 22 -51 46 -71 84 -71 138 0 71 37 123
149 207 52 40 68 68 61 105 -3 16 -14 18 -80 18 -67 0 -79 3 -103 25 -39 36
-55 73 -55 125 0 43 4 50 60 105 42 43 61 70 66 96 12 65 4 67 -212 54 -222
-13 -300 -28 -397 -72 -189 -87 -524 -386 -756 -675 -47 -59 -247 -374 -356
-563 -40 -68 -82 -117 -214 -250 -181 -181 -215 -210 -245 -210 -34 0 -146
-57 -146 -75 0 -18 39 -35 81 -35 26 0 30 -3 27 -22 -2 -16 -22 -33 -68 -58
-72 -39 -84 -63 -33 -68 37 -4 40 -12 18 -46 -13 -19 -13 -29 -4 -48 9 -21 7
-32 -10 -66 -34 -67 -137 -187 -244 -285 -130 -118 -177 -167 -177 -184 0 -16
-3 -15 38 -4 17 5 32 6 32 3 0 -4 -41 -34 -90 -66 -129 -84 -145 -124 -35 -85
104 36 109 15 26 -128 -61 -106 -144 -229 -255 -379 -36 -49 -66 -96 -66 -105
0 -9 10 -23 22 -32 l23 -15 -40 -83 c-61 -127 -132 -234 -271 -412 -177 -224
-272 -321 -342 -347 -77 -29 -170 -38 -178 -17 -9 24 13 56 90 132 49 48 92
105 136 180 94 159 253 481 279 566 13 41 40 110 61 154 21 44 65 152 98 240
33 88 69 180 80 205 10 25 25 70 32 100 7 30 28 82 46 115 18 33 74 157 124
275 228 531 369 826 476 991 37 57 89 139 117 182 27 42 53 77 57 77 4 0 28
33 53 73 76 120 482 594 628 732 231 217 633 518 827 619 225 116 704 246
1032 279 66 7 165 -5 240 -30z m-730 -978 c27 -78 35 -159 21 -213 -15 -55
-65 -110 -234 -257 -76 -66 -169 -154 -207 -196 -140 -154 -279 -361 -266
-395 8 -21 24 -9 40 29 22 52 209 278 317 382 112 107 227 201 295 241 39 23
48 25 59 13 20 -20 23 -60 5 -70 -8 -4 -31 -15 -51 -24 -73 -32 -349 -304
-439 -433 -96 -139 -275 -539 -295 -662 -15 -91 -69 -160 -115 -145 -51 16
-91 92 -105 200 -13 100 67 390 157 569 75 153 392 540 493 604 21 14 62 46
90 72 27 26 68 57 91 68 45 23 104 84 104 108 0 12 -8 13 -37 8 -58 -11 -220
-80 -261 -111 -97 -74 -394 -397 -521 -567 -70 -94 -133 -216 -202 -393 -87
-222 -168 -264 -208 -108 -63 241 131 734 435 1102 80 98 120 134 273 251 160
120 283 175 440 196 l86 12 7 -111 c4 -71 14 -131 28 -170z m134 -572 l55 -47
-62 -40 c-79 -51 -358 -328 -385 -381 -11 -22 -24 -63 -30 -90 -6 -28 -36
-111 -67 -185 -65 -154 -77 -200 -51 -200 12 0 35 38 77 127 33 69 71 139 85
155 13 16 24 36 24 43 0 42 371 465 408 465 6 0 14 -9 17 -21 11 -32 -36 -114
-131 -229 -147 -179 -263 -366 -279 -452 -4 -20 -18 -47 -31 -59 -14 -13 -33
-52 -45 -93 -51 -172 -178 -346 -254 -346 -31 0 -75 37 -91 76 -30 72 -4 232
76 477 85 258 165 399 348 619 90 108 229 228 263 228 9 0 42 -21 73 -47z
m-1537 -504 c-6 -96 -12 -106 -172 -299 -348 -420 -512 -689 -751 -1235 -230
-527 -233 -535 -212 -535 25 0 80 100 200 360 44 96 87 184 94 195 7 11 25 54
40 95 48 134 157 336 248 460 25 34 46 70 46 81 0 10 16 34 37 54 20 19 44 53
54 75 65 145 359 497 407 488 22 -4 42 -45 42 -88 0 -38 -17 -65 -127 -210
-88 -114 -144 -212 -316 -550 -82 -162 -201 -387 -264 -499 -63 -112 -166
-297 -228 -412 -139 -255 -198 -344 -286 -431 -83 -82 -157 -122 -210 -115
-32 4 -159 54 -159 63 0 1 24 36 53 76 62 87 192 327 223 412 34 95 42 118 53
161 6 22 34 72 63 110 69 92 127 196 194 346 70 156 115 232 222 376 136 182
184 257 261 408 39 77 81 155 93 173 11 19 25 54 29 80 8 38 20 56 77 111 37
36 116 126 176 199 60 72 111 132 114 132 3 0 2 -36 -1 -81z m1696 51 c9 -11
26 -20 36 -20 40 0 29 -22 -58 -115 -145 -157 -230 -300 -271 -459 -21 -84
-26 -171 -10 -181 10 -6 40 48 60 110 30 92 134 289 192 363 77 97 217 242
235 242 20 0 27 -47 12 -83 -7 -17 -47 -68 -88 -112 -135 -144 -201 -266 -301
-559 -69 -201 -82 -231 -109 -246 -28 -14 -87 -12 -120 5 -48 25 -54 55 -42
222 19 246 44 347 126 508 60 117 119 197 204 278 76 71 104 81 134 47z m262
-280 c18 -34 16 -39 -52 -154 -88 -149 -148 -324 -162 -475 -16 -170 8 -158
70 33 54 167 108 284 174 380 25 37 45 77 45 91 0 28 16 31 45 9 14 -10 17
-18 10 -28 -6 -7 -24 -32 -42 -55 -44 -58 -83 -173 -153 -449 -34 -130 -72
-262 -86 -292 -51 -111 -121 -151 -162 -92 -94 131 -75 479 38 729 59 130 224
354 249 338 6 -3 18 -19 26 -35z m270 -127 c4 -21 13 -55 21 -76 13 -34 12
-43 -7 -99 -11 -34 -28 -78 -38 -97 -62 -123 -155 -498 -133 -537 9 -15 11
-15 25 7 8 13 31 80 50 149 35 122 145 381 188 441 l21 30 24 -21 c13 -14 41
-24 67 -27 l45 -5 -53 -82 c-75 -115 -137 -243 -183 -377 -82 -237 -148 -319
-257 -319 l-35 0 0 108 c0 182 19 369 50 507 40 174 52 209 105 303 25 44 45
85 45 90 0 15 29 42 45 42 8 0 17 -15 20 -37z m-1948 -68 c-4 -8 7 -68 23
-134 l30 -121 -204 -412 c-423 -859 -597 -1129 -881 -1366 -94 -79 -152 -111
-198 -112 -36 0 -67 16 -67 36 0 24 39 94 86 155 94 122 209 332 522 949 246
486 315 615 361 676 22 29 47 68 56 88 20 42 176 211 220 238 36 22 59 23 52
3z m2428 -135 c4 -6 -11 -34 -33 -63 -51 -66 -177 -288 -198 -347 -52 -148
-118 -278 -139 -273 -30 7 6 212 61 351 65 165 157 312 208 332 30 12 94 12
101 0z m45 -70 c0 -23 -41 -89 -114 -184 -42 -54 -76 -96 -76 -93 0 8 101 194
134 246 24 38 56 55 56 31z m-2066 -138 c10 -16 -15 -86 -81 -227 -36 -77
-128 -282 -205 -455 -190 -427 -236 -520 -314 -623 -128 -169 -252 -255 -409
-282 -44 -7 -81 -12 -83 -11 -1 2 26 48 60 102 34 54 82 137 106 184 25 47 57
103 72 125 43 65 225 427 301 600 72 163 180 378 238 473 21 33 40 52 52 52
21 0 20 -5 -30 -110 -17 -36 -31 -71 -31 -78 0 -7 -22 -56 -49 -110 -26 -53
-65 -135 -86 -182 -20 -47 -86 -187 -146 -311 -110 -227 -140 -309 -105 -280
63 52 217 338 389 722 126 280 162 346 192 355 11 4 38 19 59 35 41 30 61 35
70 21z m229 -414 c-183 -457 -225 -528 -428 -735 -110 -111 -150 -137 -183
-116 -27 16 -24 30 13 71 19 22 44 64 54 93 11 30 40 99 66 154 26 55 73 172
105 260 117 327 190 485 222 485 36 0 32 -31 -15 -124 -26 -51 -47 -96 -47
-100 0 -4 -34 -80 -75 -170 -41 -90 -75 -170 -75 -179 0 -34 22 -15 74 66 59
90 96 162 175 337 56 126 85 165 128 174 16 4 42 20 58 36 17 16 33 29 36 29
3 1 -45 -126 -108 -281z m201 109 c13 -35 -3 -95 -60 -238 -43 -107 -47 -129
-20 -129 23 0 45 34 92 141 26 57 52 109 58 116 8 8 29 8 75 2 36 -5 67 -11
69 -14 11 -11 -52 -148 -97 -212 -86 -122 -188 -193 -280 -193 l-44 0 7 43 c4
23 29 107 57 187 28 80 64 187 81 238 30 96 45 109 62 59z m374 -173 c2 -30
-8 -98 -23 -165 -27 -116 -27 -171 0 -149 7 6 23 41 34 78 33 109 60 133 101
92 25 -25 26 -65 5 -186 -24 -135 -64 -307 -74 -317 -10 -10 -124 24 -158 48
-32 22 -38 88 -24 249 19 216 77 412 119 404 13 -2 18 -16 20 -54z m382 -143
c16 -31 12 -78 -16 -186 -31 -123 -56 -307 -48 -352 7 -36 21 -51 34 -37 5 5
24 104 44 221 36 216 49 263 72 263 16 0 44 -51 44 -79 0 -11 -13 -77 -29
-148 -31 -134 -51 -283 -51 -378 0 -49 -4 -60 -29 -86 -90 -90 -192 38 -211
264 -13 161 10 259 110 457 41 81 61 96 80 61z m378 -59 c-4 -41 -156 -447
-164 -439 -8 8 29 232 51 307 13 47 27 102 30 123 8 52 38 81 66 66 18 -9 21
-18 17 -57z"/>
<path d="M4119 5323 c-13 -36 -6 -74 30 -148 30 -63 92 -132 109 -121 27 16
-86 296 -119 296 -5 0 -14 -12 -20 -27z"/>
<path d="M3830 5294 c-25 -8 -77 -17 -115 -20 -58 -5 -73 -4 -84 10 -15 18
-44 21 -72 6 -30 -17 -23 -29 29 -52 36 -17 76 -23 178 -27 91 -5 137 -11 149
-21 22 -19 103 -17 143 4 54 28 42 39 -53 51 -71 9 -105 24 -105 46 0 22 -9
23 -70 3z"/>
<path d="M4419 5097 c-54 -36 -94 -100 -92 -149 3 -55 41 -130 76 -147 45 -20
50 -3 21 71 -17 42 -24 75 -21 91 4 13 29 52 57 87 27 34 50 64 50 66 0 13
-63 0 -91 -19z"/>
<path d="M4426 4753 c-69 -24 -111 -69 -126 -136 -11 -48 -10 -58 9 -101 15
-34 29 -51 51 -59 16 -6 30 -15 30 -19 0 -5 -15 -39 -34 -76 -46 -92 -52 -131
-28 -186 30 -67 132 -133 177 -116 53 20 57 70 7 70 -42 0 -91 19 -102 40 -15
27 -12 115 4 154 7 18 28 43 45 55 17 12 31 29 31 37 0 8 -25 30 -55 49 -30
20 -63 47 -72 61 -16 25 -16 28 7 71 27 51 101 120 133 125 14 2 22 10 22 23
0 26 -35 29 -99 8z"/>
<path d="M4490 3997 c0 -7 13 -34 29 -59 23 -36 43 -53 94 -77 36 -17 69 -31
74 -31 17 0 49 -45 67 -93 20 -54 69 -94 128 -103 55 -9 168 55 168 96 0 38
-55 55 -81 24 -21 -26 -66 -44 -107 -44 -61 0 -71 14 -74 100 -3 72 -4 75 -28
78 -94 11 -130 25 -190 72 -63 52 -80 59 -80 37z"/>
<path d="M3595 4809 c-123 -50 -321 -188 -446 -311 -126 -123 -313 -356 -358
-445 -25 -50 -26 -63 -7 -63 19 0 69 62 139 170 30 47 101 134 158 194 101
106 270 256 289 256 5 0 41 21 80 46 39 25 105 61 147 80 83 38 108 61 91 81
-14 17 -34 16 -93 -8z"/>
<path d="M2545 3021 c-89 -77 -147 -151 -234 -296 -118 -198 -421 -766 -421
-789 0 -4 -31 -64 -69 -134 -78 -143 -89 -172 -69 -172 27 0 158 159 173 210
4 14 24 54 45 90 21 36 85 160 143 275 138 273 223 421 361 630 62 94 118 180
125 193 24 46 4 43 -54 -7z"/>
<path d="M3794 1916 c-8 -22 0 -69 12 -73 7 -2 14 7 17 19 12 45 -14 92 -29
54z"/>
</g>
</svg>
